<svg xmlns="http://www.w3.org/2000/svg" width="167.39" height="94.349" viewBox="0 0 167.39 94.349"><g transform="translate(-355.621 -166.163)"><g transform="translate(-1740.473 -1247.244)"><path d="M2102.118,1479.385a1.222,1.222,0,0,1-.215.029.419.419,0,0,1-.272-.072.465.465,0,0,1-.129-.158,2.93,2.93,0,0,0-.89-1.19,2.355,2.355,0,0,0-1.406-.373,2.245,2.245,0,0,0-.652.093,1.6,1.6,0,0,0-.538.273,1.33,1.33,0,0,0-.366.437,1.212,1.212,0,0,0-.136.574,1.33,1.33,0,0,0,.566,1.1,7.446,7.446,0,0,0,1.671.875,5.83,5.83,0,0,1,2.03,1.212,2.257,2.257,0,0,1,.653,1.642,3.287,3.287,0,0,1-.179,1.1,2.355,2.355,0,0,1-.56.89,2.6,2.6,0,0,1-.982.595,4.311,4.311,0,0,1-1.449.215,6.487,6.487,0,0,1-1.614-.186,4.609,4.609,0,0,1-1.227-.488c-.029-.4-.071-.789-.129-1.162s-.124-.746-.2-1.119a.625.625,0,0,1,.243-.043.406.406,0,0,1,.266.079.659.659,0,0,1,.165.251,3.454,3.454,0,0,0,.925,1.521,2.355,2.355,0,0,0,1.585.488,2.289,2.289,0,0,0,.8-.129,1.6,1.6,0,0,0,.573-.359,1.537,1.537,0,0,0,.345-.516,1.661,1.661,0,0,0,.114-.618,1.46,1.46,0,0,0-.509-1.176,4.81,4.81,0,0,0-1.456-.774,11.52,11.52,0,0,1-1.119-.481,3.7,3.7,0,0,1-.861-.581,2.288,2.288,0,0,1-.552-.768,2.55,2.55,0,0,1-.194-1.039,2.577,2.577,0,0,1,.194-1,2.333,2.333,0,0,1,.56-.811,2.689,2.689,0,0,1,.882-.545,3.178,3.178,0,0,1,1.162-.2,6.281,6.281,0,0,1,1.29.129,8.943,8.943,0,0,1,1.392.431q.029.43.079.925C2102.015,1478.79,2102.061,1479.1,2102.118,1479.385Z" fill="#bb9c79"/><path d="M2120.981,1481.824v3.629a.441.441,0,0,0,.18.4,2.2,2.2,0,0,0,.667.215.179.179,0,0,1,.157.215,1.272,1.272,0,0,1-.028.244c-.307-.019-.6-.036-.875-.05s-.536-.022-.775-.022-.528.008-.839.022-.61.031-.9.05a1.176,1.176,0,0,1-.03-.229c0-.134.048-.211.144-.23a3.242,3.242,0,0,0,.746-.222.408.408,0,0,0,.2-.4v-7.3a.44.44,0,0,0-.2-.409,2.274,2.274,0,0,0-.746-.208c-.1-.01-.144-.091-.144-.244a1.192,1.192,0,0,1,.03-.23c.277.02.573.036.889.051s.592.021.832.021.526-.007.832-.021.612-.031.918-.051a1.242,1.242,0,0,1,.028.23c0,.143-.048.225-.143.244a2.27,2.27,0,0,0-.746.208.441.441,0,0,0-.2.409v3.471l3.328-3.3a.992.992,0,0,0,.151-.194.429.429,0,0,0,.065-.222.254.254,0,0,0-.165-.237,1.666,1.666,0,0,0-.438-.122c-.1-.009-.143-.095-.143-.258a1.259,1.259,0,0,1,.028-.23c.277.02.555.036.832.051s.531.021.761.021c.21,0,.432-.007.667-.021s.446-.031.638-.051a1.254,1.254,0,0,1,.029.23c0,.153-.053.244-.158.272a2.8,2.8,0,0,0-.588.173,1.787,1.787,0,0,0-.531.358l-3.227,3.185,3.915,4.217a1.656,1.656,0,0,0,.488.373,2.229,2.229,0,0,0,.589.172c.114.01.171.091.171.244a1.272,1.272,0,0,1-.028.244q-.445-.029-.976-.05c-.353-.014-.66-.022-.918-.022s-.55.008-.846.022-.607.031-.932.05a1.162,1.162,0,0,1-.029-.229c0-.144.052-.22.158-.23q.645-.043.645-.373a.415.415,0,0,0-.143-.287Z" fill="#bb9c79"/><path d="M2145.124,1485.453a.408.408,0,0,0,.2.4,3.233,3.233,0,0,0,.746.222c.095.019.143.1.143.23a1.162,1.162,0,0,1-.029.229q-.444-.029-.889-.05c-.3-.014-.579-.022-.846-.022s-.543.008-.854.022-.6.031-.882.05a1.241,1.241,0,0,1-.029-.229c0-.134.048-.211.144-.23a2.676,2.676,0,0,0,.746-.215.426.426,0,0,0,.2-.4v-7.3a.442.442,0,0,0-.2-.409,2.278,2.278,0,0,0-.746-.208.139.139,0,0,1-.115-.086.426.426,0,0,1-.029-.158,1.258,1.258,0,0,1,.029-.23c.287.02.586.036.9.051s.59.021.839.021.514-.007.825-.021.614-.031.91-.051a1.177,1.177,0,0,1,.029.23c0,.143-.048.225-.143.244a2.27,2.27,0,0,0-.746.208.44.44,0,0,0-.2.409Z" fill="#bb9c79"/><path d="M2169.6,1484.176v-6a.467.467,0,0,0-.23-.444,2.3,2.3,0,0,0-.774-.2c-.106-.01-.158-.091-.158-.244a1.259,1.259,0,0,1,.028-.23c.24.02.483.036.732.051s.483.021.7.021.431-.007.66-.021.454-.031.674-.051a1.258,1.258,0,0,1,.029.23c0,.153-.048.234-.144.244a1.631,1.631,0,0,0-.667.2.479.479,0,0,0-.179.416v8.449a.347.347,0,0,1-.1.021,1.135,1.135,0,0,1-.115.007.371.371,0,0,1-.187-.05.75.75,0,0,1-.2-.208l-5.824-7.674v6.756a.423.423,0,0,0,.2.4,2.717,2.717,0,0,0,.774.215c.1.019.144.1.144.23a1.259,1.259,0,0,1-.029.229c-.239-.019-.481-.036-.725-.05s-.471-.022-.681-.022c-.192,0-.416.008-.674.022s-.493.031-.7.05a1.177,1.177,0,0,1-.029-.229c0-.134.052-.211.158-.23a2.268,2.268,0,0,0,.7-.215.442.442,0,0,0,.179-.4v-7.373a.412.412,0,0,0-.165-.352,1.675,1.675,0,0,0-.681-.193c-.106-.019-.158-.1-.158-.244a.558.558,0,0,1,.014-.129.455.455,0,0,1,.014-.1c.191.02.373.034.546.043.152.01.315.017.487.022s.326.007.459.007a3.307,3.307,0,0,1,.552.029.368.368,0,0,1,.223.143Z" fill="#bb9c79"/><path d="M2189.665,1482.412v2.941a.474.474,0,0,0,.315.466,3.8,3.8,0,0,0,.947.222c.115.019.172.1.172.244a1.208,1.208,0,0,1-.029.244c-.277-.019-.593-.036-.946-.05s-.737-.022-1.148-.022c-.249,0-.531.008-.846.022s-.612.031-.889.05a1.162,1.162,0,0,1-.029-.229c0-.134.047-.211.143-.23a3.13,3.13,0,0,0,.768-.222.412.412,0,0,0,.193-.4v-7.3a.445.445,0,0,0-.222-.416,2.29,2.29,0,0,0-.8-.2c-.1-.019-.144-.106-.144-.258a.9.9,0,0,1,.029-.216c.268.02.552.036.854.051s.585.021.853.021h2.023a3.274,3.274,0,0,1,2.324.732,2.486,2.486,0,0,1,.774,1.893,2.306,2.306,0,0,1-.208.933,2.679,2.679,0,0,1-.6.853,3.105,3.105,0,0,1-.975.624,3.353,3.353,0,0,1-1.312.244Zm.76-.588a2.39,2.39,0,0,0,1.549-.445,1.842,1.842,0,0,0,.545-1.506,3.344,3.344,0,0,0-.1-.832,1.721,1.721,0,0,0-.345-.681,1.675,1.675,0,0,0-.645-.467,2.572,2.572,0,0,0-1-.172h-.76v4.1Z" fill="#bb9c79"/><path d="M2212.3,1485.425a.348.348,0,0,0,.215.343,1.394,1.394,0,0,0,.588.1h1.564a2.155,2.155,0,0,0,.717-.107,1.466,1.466,0,0,0,.516-.309,1.988,1.988,0,0,0,.38-.495,3.958,3.958,0,0,0,.294-.667.17.17,0,0,1,.173-.115.36.36,0,0,1,.15.036c.053.024.108.05.166.079q-.1.43-.194.911c-.062.32-.118.682-.165,1.083a.251.251,0,0,1-.086.2.328.328,0,0,1-.173.043q-.243,0-.609-.036t-.639-.036h-3.586c-.22,0-.5.008-.832.022s-.655.031-.961.05a1.241,1.241,0,0,1-.029-.229c0-.134.048-.211.144-.23a2.784,2.784,0,0,0,.8-.222.406.406,0,0,0,.215-.38v-7.316a.441.441,0,0,0-.2-.409,2.362,2.362,0,0,0-.775-.208.154.154,0,0,1-.108-.079.316.316,0,0,1-.035-.151,1.288,1.288,0,0,1,.028-.244c.325.02.646.036.961.051s.583.021.8.021c.324,0,.669-.007,1.033-.021s.688-.031.975-.051a1.242,1.242,0,0,1,.028.23c0,.163-.052.249-.157.258a3.207,3.207,0,0,0-.911.208.5.5,0,0,0-.294.495Z" fill="#bb9c79"/><path d="M2240.36,1482.971a5.487,5.487,0,0,1-.187,1.485,2.734,2.734,0,0,1-1.778,1.908,5.217,5.217,0,0,1-1.793.265,5.4,5.4,0,0,1-1.994-.308,2.847,2.847,0,0,1-1.169-.81,2.649,2.649,0,0,1-.545-1.155,6.4,6.4,0,0,1-.137-1.327v-4.877a.458.458,0,0,0-.2-.416,2.012,2.012,0,0,0-.76-.2c-.095-.01-.143-.091-.143-.244a1.259,1.259,0,0,1,.028-.23c.287.02.581.036.883.051s.59.021.867.021q.374,0,.875-.021c.335-.015.646-.031.933-.051a1.258,1.258,0,0,1,.029.23c0,.153-.048.234-.144.244a2.376,2.376,0,0,0-.781.2.438.438,0,0,0-.237.416v4.561a3.769,3.769,0,0,0,.595,2.288,2.356,2.356,0,0,0,2.016.8,4.488,4.488,0,0,0,1.362-.18,2.035,2.035,0,0,0,1.435-1.521,5.634,5.634,0,0,0,.157-1.427v-4.518a.448.448,0,0,0-.214-.416,2.177,2.177,0,0,0-.775-.2c-.1-.01-.158-.091-.158-.244a1.258,1.258,0,0,1,.029-.23c.277.02.547.036.81.051s.49.021.682.021c.229,0,.461-.007.7-.021s.467-.031.7-.051a1.258,1.258,0,0,1,.029.23.327.327,0,0,1-.043.151.174.174,0,0,1-.115.093,1.792,1.792,0,0,0-.739.193.471.471,0,0,0-.208.424Z" fill="#bb9c79"/><path d="M2263.168,1479.385a1.233,1.233,0,0,1-.215.029.421.421,0,0,1-.273-.072.491.491,0,0,1-.129-.158,2.929,2.929,0,0,0-.889-1.19,2.357,2.357,0,0,0-1.406-.373,2.25,2.25,0,0,0-.653.093,1.615,1.615,0,0,0-.538.273,1.33,1.33,0,0,0-.365.437,1.2,1.2,0,0,0-.137.574,1.331,1.331,0,0,0,.567,1.1,7.433,7.433,0,0,0,1.671.875,5.839,5.839,0,0,1,2.03,1.212,2.257,2.257,0,0,1,.653,1.642,3.263,3.263,0,0,1-.18,1.1,2.341,2.341,0,0,1-.559.89,2.6,2.6,0,0,1-.983.595,4.311,4.311,0,0,1-1.449.215,6.478,6.478,0,0,1-1.613-.186,4.6,4.6,0,0,1-1.227-.488q-.043-.6-.129-1.162t-.2-1.119a.631.631,0,0,1,.244-.043.4.4,0,0,1,.265.079.656.656,0,0,1,.165.251,3.457,3.457,0,0,0,.926,1.521,2.352,2.352,0,0,0,1.585.488,2.285,2.285,0,0,0,.8-.129,1.6,1.6,0,0,0,.574-.359,1.542,1.542,0,0,0,.344-.516,1.661,1.661,0,0,0,.115-.618,1.458,1.458,0,0,0-.51-1.176,4.786,4.786,0,0,0-1.456-.774,11.4,11.4,0,0,1-1.118-.481,3.7,3.7,0,0,1-.861-.581,2.285,2.285,0,0,1-.552-.768,2.55,2.55,0,0,1-.194-1.039,2.577,2.577,0,0,1,.194-1,2.323,2.323,0,0,1,.559-.811,2.708,2.708,0,0,1,.882-.545,3.186,3.186,0,0,1,1.162-.2,6.285,6.285,0,0,1,1.291.129,8.973,8.973,0,0,1,1.392.431q.029.43.078.925T2263.168,1479.385Z" fill="#bb9c79"/></g><g transform="translate(-1740.473 -1247.244)"><path d="M2154.458,1507.644l.029-4.013-1.7,4.013h-.555l-1.7-4.013.03,4.013H2150v-4.675h.814l1.7,3.96,1.7-3.96h.8v4.675Z" fill="#bb9c79"/><path d="M2161.94,1507.644v-4.675h3.841v.576h-3.251v1.391h3.168v.556h-3.168v1.576h3.4v.576Z" fill="#bb9c79"/><path d="M2176.293,1507.087a2.675,2.675,0,0,1-1.988.557h-1.663v-4.675h2.071c.117,0,.229,0,.348.006a1.944,1.944,0,0,1,1.079.371,2.326,2.326,0,0,1,.855,1.927A2.5,2.5,0,0,1,2176.293,1507.087Zm-.937-3.5a2.327,2.327,0,0,0-.643-.066h-1.475v3.562h1.215c.112,0,.218-.007.324-.013a1.608,1.608,0,0,0,1.115-.437,2,2,0,0,0,.5-1.384A1.62,1.62,0,0,0,2175.356,1503.585Z" fill="#bb9c79"/><path d="M2187.621,1507.015a1.711,1.711,0,0,1-1.227.695,4.118,4.118,0,0,1-1.675-.093,2.451,2.451,0,0,1-.449-.165,2.069,2.069,0,0,1-.436-.285,1.756,1.756,0,0,1-.39-.47l.549-.252a1.423,1.423,0,0,0,.088.113,1.8,1.8,0,0,0,.573.4,3.054,3.054,0,0,0,1.179.225,1.822,1.822,0,0,0,1.133-.318.837.837,0,0,0,.283-.629.609.609,0,0,0-.354-.576,5.23,5.23,0,0,0-1.356-.232c-.8-.072-1.186-.119-1.493-.437a1.066,1.066,0,0,1-.295-.781,1.174,1.174,0,0,1,.578-1.059,3.214,3.214,0,0,1,3,.139,1.452,1.452,0,0,1,.189.159,2.035,2.035,0,0,1,.271.337l-.543.245a2.075,2.075,0,0,0-.253-.245,2,2,0,0,0-1.28-.391,2.458,2.458,0,0,0-.909.153.681.681,0,0,0-.46.629.622.622,0,0,0,.071.291.81.81,0,0,0,.684.325c.46.066.921.092,1.38.152a1.481,1.481,0,0,1,1.139.55,1.261,1.261,0,0,1,.218.734A1.406,1.406,0,0,1,2187.621,1507.015Z" fill="#bb9c79"/><path d="M2198.423,1505.452a1.622,1.622,0,0,1-1.18.318h-2v1.874h-.6v-4.675h2.549c.106,0,.212.006.318.013a1.4,1.4,0,0,1,1.139.616,1.547,1.547,0,0,1,.212.8A1.381,1.381,0,0,1,2198.423,1505.452Zm-.354-1.6a1.085,1.085,0,0,0-.974-.331h-1.858v1.689h1.923a1,1,0,0,0,.9-.325.964.964,0,0,0,.006-1.033Z" fill="#bb9c79"/><path d="M2208.889,1507.644l-.508-1.152h-2.56l-.507,1.152h-.667l2.159-4.675h.632l2.135,4.675Zm-1.782-4.006-1.038,2.318h2.059Z" fill="#bb9c79"/></g><g transform="translate(-1740.473 -1247.244)"><path d="M2185.686,1438.4a7.684,7.684,0,0,1-.4.892c5.682-.508,9.142-3.991,9.142-9.037,0-4.867-4.109-8.748-11.226-8.748H2172.34v.357c1.869,0,2.431.585,2.578,1.677v2.336l-.453-.2c-2.765-1.207-5.855-2.491-5.855-6.033,0-3.378,2.624-5.736,6.554-5.736,3.465,0,5.974,1.837,7.8,6.019h.677v-4.785a22.888,22.888,0,0,0-8.287-1.733c-5.572,0-9.5,3.419-9.5,8.008,0,4.3,3.232,6.152,6.555,7.56l2.34,1.006c.059.027.119.05.174.077a29.65,29.65,0,0,1,4.122,2.044,7.142,7.142,0,0,1,2.405,2.3,4.942,4.942,0,0,1,.694,2.614,5.73,5.73,0,0,1-.274,1.778,4.641,4.641,0,0,1-.169.444,6.047,6.047,0,0,1-2.656,2.888v-8.355a19.6,19.6,0,0,0-4.122-2.221v14.366h0c.018,2.875.544,4.506-2.582,4.506v.361h9.461v-.361c-3.122,0-2.774-1.631-2.761-4.506v-3.063c.01,0,.014,0,.019,0,.16-.055.31-.119.466-.183a10,10,0,0,0,1.289-.645c.137-.077.269-.16.4-.246a9,9,0,0,0,.741-.54q.281-.227.539-.48a7.762,7.762,0,0,0,1.179-1.4c.115-.178.224-.361.325-.544a7.6,7.6,0,0,0,.91-3.643c0-3.94-2.651-5.919-5.865-7.477v-4.1c0-.969,1.052-1.421,2.176-1.421h1.778c5.2,0,7.084,3.931,7.084,8.2C2190.078,1434.327,2188.5,1437.289,2185.686,1438.4Z" fill="#bb9c79"/><path d="M2192.5,1447.532a.989.989,0,0,1-.989-.989v-1.93h-.336v1.93a.989.989,0,0,1-.989.989h-1.93v.336h1.93a.989.989,0,0,1,.989.989v1.93h.336v-1.93a.989.989,0,0,1,.989-.989h1.93v-.336Z" fill="#bb9c79"/><path d="M2173.78,1443.158c-3.6-.384-6.239-2.893-7.958-7.423h-.676l.283,6.152a12.806,12.806,0,0,0,1.9.718c.179.055.361.1.544.155s.375.1.567.146l.288.069a28.858,28.858,0,0,0,3.282.553c.617.064,1.211.105,1.769.119Z" fill="#bb9c79"/></g></g></svg>